PathFileType	4	(X/Y/Z)	D:\luciana\Cultery.trc
DataRate	CameraRate	NumFrames	NumMarkers	Units	OrigDataRate	OrigDataStartFrame	OrigNumFrames
250.00	250.00	10	17	mm	250.00	483	2050
Frame#	Time	pelvisR			Trunk1			Trunk2			Trunk3			C7			shoulder			upperArm1			upperArm2			upperArm3			elbow			forearm1			forearm2			forearm3			wrist1			wrist2			wrist3			Hand			
		X1	Y1	Z1	X2	Y2	Z2	X3	Y3	Z3	X4	Y4	Z4	X5	Y5	Z5	X6	Y6	Z6	X7	Y7	Z7	X8	Y8	Z8	X9	Y9	Z9	X10	Y10	Z10	X11	Y11	Z11	X12	Y12	Z12	X13	Y13	Z13	X14	Y14	Z14	X15	Y15	Z15	X16	Y16	Z16	X17	Y17	Z17	

1138	4.552000	1720.782995	650.699377	687.745392	1617.968321	857.178390	936.399221	1648.816943	767.555892	919.502854	1559.541106	800.499618	928.116739	1556.248903	1130.617976	831.040382	1715.470076	1060.720921	745.346606	1799.260974	931.607902	609.065831	1782.888770	882.400632	665.791273	1726.958752	966.737151	595.848799	1748.623371	839.884758	518.803775	1784.217238	817.123771	445.683479	1753.281236	756.180584	489.844739	1725.028515	861.443400	432.180434	1722.013116	806.712627	300.985783	1751.373410	737.832129	324.102163	1650.057197	809.824407	321.372122	1708.761692	748.155713	222.465366	
1139	4.556000	1720.770955	650.691628	687.741518	1617.991924	857.187688	936.419368	1648.809314	767.544448	919.509828	1559.561014	800.503969	928.130090	1556.248069	1130.626202	831.045508	1715.469837	1060.716391	745.362639	1799.247026	931.634068	609.069824	1782.870531	882.411718	665.785134	1726.952910	966.761112	595.856309	1748.596311	839.926839	518.812776	1784.197211	817.169785	445.685327	1753.251791	756.220102	489.828885	1724.995732	861.480951	432.167143	1722.012401	806.719780	300.988466	1751.362562	737.855971	324.098706	1650.051117	809.833646	321.362883	1708.780408	748.160481	222.462445	
1140	4.560000	1720.778346	650.691509	687.738359	1618.009567	857.199013	936.440766	1648.807049	767.521143	919.504881	1559.573650	800.515532	928.141832	1556.268692	1130.626440	831.057906	1715.453982	1060.721397	745.364308	1799.237728	931.661129	609.071374	1782.867551	882.423878	665.778935	1726.941586	966.793776	595.870614	1748.566508	839.960039	518.807173	1784.184098	817.217708	445.691556	1753.242254	756.265640	489.852756	1724.958062	861.511827	432.152927	1722.009182	806.733310	300.987989	1751.358509	737.871230	324.099571	1650.040030	809.839129	321.355402	1708.783507	748.158574	222.464532	
1141	4.564000	1720.791578	650.699615	687.733233	1618.032098	857.211649	936.459303	1648.818254	767.524600	919.509947	1559.574842	800.518751	928.145289	1556.277990	1130.621195	831.069291	1715.449929	1060.709953	745.382011	1799.211502	931.689024	609.060884	1782.854080	882.437646	665.759802	1726.922989	966.826558	595.881224	1748.537540	839.997947	518.793762	1784.156561	817.264199	445.692182	1753.216267	756.304502	489.858389	1724.928617	861.545444	432.148665	1721.998096	806.745887	300.976306	1751.372099	737.896562	324.098110	1650.031090	809.842467	321.339518	1708.802223	748.154759	222.473562	
1142	4.568000	1720.795274	650.703788	687.744021	1618.032813	857.224584	936.464071	1648.826241	767.527759	919.523358	1559.585452	800.521553	928.147316	1556.298971	1130.622387	831.075668	1715.448976	1060.706377	745.416462	1799.197197	931.723237	609.049022	1782.844067	882.453740	665.748417	1726.900816	966.840208	595.875680	1748.493433	840.032220	518.787622	1784.135103	817.301452	445.696652	1753.193855	756.341457	489.859819	1724.903226	861.579716	432.148933	1721.984386	806.756496	300.969869	1751.385450	737.924635	324.091524	1650.018215	809.850574	321.323484	1708.825111	748.148263	222.455293	
1143	4.572000	1720.799804	650.695562	687.750757	1618.025541	857.220709	936.470151	1648.828506	767.527282	919.547319	1559.582472	800.534070	928.150535	1556.294799	1130.618691	831.077039	1715.448976	1060.706735	745.430887	1799.179673	931.757927	609.039128	1782.843113	882.474124	665.742934	1726.875305	966.868997	595.887184	1748.452783	840.075850	518.769920	1784.109950	817.346871	445.678473	1753.169417	756.384254	489.851028	1724.877000	861.609340	432.135552	1721.974134	806.772888	300.961733	1751.379251	737.947643	324.106812	1650.005698	809.862614	321.314126	1708.827853	748.147368	222.454548	
1144	4.576000	1720.801234	650.701523	687.755227	1618.001580	857.212484	936.474085	1648.828149	767.532647	919.549823	1559.586525	800.534964	928.159356	1556.296468	1130.615115	831.083059	1715.444922	1060.707211	745.447338	1799.158573	931.787848	609.026253	1782.839775	882.497907	665.719807	1726.836443	966.895342	595.907032	1748.414874	840.116858	518.750429	1784.087062	817.378640	445.675910	1753.148794	756.424129	489.855349	1724.837422	861.643553	432.129443	1721.967578	806.792140	300.949782	1751.386404	737.977803	324.110121	1649.986506	809.863985	321.298182	1708.828449	748.149693	222.450107	
1145	4.580000	1720.803380	650.707185	687.767029	1617.976069	857.201695	936.463177	1648.827195	767.521918	919.548869	1559.584618	800.527573	928.163528	1556.297541	1130.616546	831.095219	1715.433836	1060.720682	745.452881	1799.329281	931.880593	609.074116	1782.831669	882.505476	665.704072	1726.821184	966.927409	595.918477	1748.388290	840.154350	518.736839	1784.072995	817.425489	445.702255	1753.134251	756.464481	489.872158	1724.803686	861.671627	432.120323	1721.961379	806.806862	300.941855	1751.389980	738.005638	324.098647	1649.972439	809.871078	321.280092	1708.842278	748.149514	222.436041	
1146	4.584000	1720.796824	650.701165	687.775493	1617.995143	857.212901	936.459243	1648.824096	767.534494	919.561088	1559.581876	800.518274	928.162813	1556.300282	1130.615592	831.099510	1715.438843	1060.730338	745.449007	1799.542904	931.992233	609.137416	1782.836676	882.529914	665.689349	1726.786852	966.929674	595.906317	1748.362660	840.191901	518.729448	1784.051418	817.469597	445.704103	1753.118515	756.503761	489.877015	1724.773645	861.696005	432.110399	1721.950293	806.822240	300.927877	1751.397610	738.034308	324.099809	1649.953008	809.880018	321.276277	1708.857298	748.142004	222.433820	
1147	4.588000	1720.805407	650.707781	687.782109	1618.016839	857.216597	936.467469	1648.843050	767.543912	919.566631	1559.586763	800.498784	928.169608	1556.296587	1130.609274	831.100106	1715.431333	1060.729861	745.463133	1799.381971	931.966960	609.080434	1782.846689	882.567048	665.680051	1726.769924	966.967821	595.923603	1748.336554	840.235949	518.724024	1784.029961	817.510486	445.711046	1753.103495	756.536961	489.889383	1724.739313	861.716568	432.095081	1721.939206	806.840599	300.928056	1751.386881	738.053322	324.119747	1649.939537	809.891701	321.267158	1708.855629	748.157263	222.436070	
